<?xml version="1.0" standalone="no"?>
<!DOCTYPE svg PUBLIC "-//W3C//DTD SVG 20010904//EN"
 "http://www.w3.org/TR/2001/REC-SVG-20010904/DTD/svg10.dtd">
<svg version="1.0" xmlns="http://www.w3.org/2000/svg"
 width="792.000000pt" height="612.000000pt" viewBox="0 0 792.000000 612.000000"
 preserveAspectRatio="xMidYMid meet">

<g transform="translate(0.000000,612.000000) scale(0.100000,-0.100000)"
fill="#000000" stroke="none">
<path d="M3739 4853 c-80 -123 -173 -307 -229 -449 -23 -60 -45 -112 -49 -117
-4 -4 -38 6 -75 23 -128 58 -219 74 -431 75 -181 0 -309 -13 -345 -35 -12 -8
-15 -36 -14 -152 1 -170 19 -241 113 -450 l59 -132 -79 -23 c-168 -49 -302
-136 -496 -326 -73 -72 -133 -134 -133 -139 0 -20 87 -136 159 -211 124 -129
242 -199 409 -238 158 -38 421 -14 566 52 l41 18 -45 -7 c-25 -4 -108 -7 -185
-7 -115 1 -154 5 -220 23 -212 61 -327 181 -312 327 23 219 225 336 557 321
280 -13 597 -103 795 -226 l80 -50 -45 41 c-197 178 -435 324 -640 393 -91 30
-263 66 -319 66 -48 0 -61 16 -92 108 -30 89 -24 183 14 241 38 57 98 98 181
123 143 44 295 23 436 -59 83 -49 242 -206 309 -306 69 -103 145 -260 184
-382 38 -118 45 -101 28 65 -28 271 -153 539 -348 750 l-65 70 23 32 c191 276
359 326 516 155 125 -138 200 -365 210 -637 6 -160 -5 -235 -57 -402 -16 -51
-28 -94 -26 -95 2 -2 21 27 43 64 162 273 232 517 219 759 l-6 110 73 18 c227
56 382 12 434 -122 23 -59 22 -216 -1 -317 -55 -235 -279 -537 -491 -663 -99
-59 -83 -60 60 -5 118 45 198 90 292 166 103 83 233 214 269 271 33 54 30 53
156 5 115 -45 168 -84 201 -149 60 -116 17 -250 -121 -382 -92 -88 -156 -126
-277 -167 -156 -52 -249 -64 -430 -58 -170 7 -234 17 -389 67 -54 17 -100 30
-102 27 -6 -6 215 -124 306 -164 179 -77 421 -115 606 -94 339 38 591 218 735
525 42 91 94 259 86 280 -9 24 -226 123 -347 159 -63 19 -168 47 -233 62 -97
23 -118 31 -114 44 3 9 18 50 33 91 60 167 36 499 -51 695 -23 53 -25 55 -62
55 -67 0 -215 -36 -308 -75 -77 -32 -171 -82 -327 -174 l-36 -22 -12 38 c-38
120 -154 283 -269 379 -66 56 -216 158 -302 208 l-47 27 -63 -98z"/>
<path d="M4459 4841 c-36 -36 -39 -42 -39 -97 0 -104 57 -161 152 -152 76 8
128 68 128 148 0 87 -56 140 -149 140 -49 0 -57 -3 -92 -39z"/>
<path d="M3199 4777 c-122 -81 -72 -269 72 -271 112 -2 181 124 123 225 -38
66 -132 89 -195 46z"/>
<path d="M5499 4051 c-67 -21 -109 -76 -109 -143 0 -154 208 -204 270 -65 24
53 25 81 1 134 -27 58 -101 92 -162 74z"/>
<path d="M2217 3846 c-51 -19 -63 -31 -83 -82 -28 -74 -6 -145 59 -184 61 -37
144 -20 186 38 83 117 -29 275 -162 228z"/>
<path d="M3403 2420 c-110 -22 -205 -93 -234 -176 -10 -29 -14 -97 -14 -264 1
-247 4 -264 65 -333 113 -130 497 -142 638 -21 81 69 87 90 90 329 4 234 -4
292 -47 352 -35 48 -126 98 -205 112 -68 13 -231 13 -293 1z m263 -166 c62
-30 69 -55 69 -264 0 -201 -5 -225 -57 -263 -42 -31 -170 -36 -232 -9 -70 31
-76 54 -76 269 0 203 8 235 70 265 47 24 178 25 226 2z"/>
<path d="M4317 2419 c-94 -22 -177 -94 -197 -171 -7 -25 -10 -87 -8 -148 3
-93 7 -111 32 -157 l28 -51 -25 -34 c-41 -55 -57 -95 -57 -143 0 -136 88 -185
335 -185 192 0 230 -17 227 -99 -2 -48 -42 -87 -105 -102 -62 -14 -195 -7
-258 16 -52 18 -102 65 -117 110 l-10 30 -27 -58 c-66 -141 18 -231 239 -258
224 -28 399 30 461 154 21 42 25 65 25 132 0 112 -24 159 -103 199 -54 28 -63
29 -245 35 -157 6 -193 10 -216 24 -32 22 -44 48 -38 89 4 25 8 29 26 23 103
-30 174 -38 258 -27 145 18 226 68 269 164 21 49 23 71 27 261 2 114 3 207 1
207 -2 0 -26 -7 -53 -15 -61 -19 -132 -19 -216 0 -72 16 -194 18 -253 4z m273
-160 l32 -12 -4 -113 c-3 -112 -3 -114 -34 -145 -59 -59 -197 -49 -241 17 -14
22 -18 48 -18 110 0 95 18 130 76 152 38 13 137 9 189 -9z"/>
<path d="M5190 2420 c-25 -5 -70 -22 -100 -37 -71 -36 -105 -94 -95 -163 11
-71 65 -163 65 -110 0 86 116 160 249 160 109 0 162 -29 164 -91 2 -42 -35
-69 -129 -93 -241 -61 -307 -95 -348 -178 -61 -122 -15 -263 106 -324 82 -42
185 -51 323 -30 110 18 205 18 248 1 16 -7 17 13 17 332 l0 339 -25 51 c-51
101 -142 145 -315 149 -63 2 -135 -1 -160 -6z m300 -566 l0 -125 -32 -13 c-88
-36 -205 -27 -248 19 -30 32 -32 95 -5 125 28 31 49 41 148 66 48 12 98 29
110 38 12 8 23 15 25 15 1 1 2 -55 2 -125z"/>
<path d="M2266 2229 c12 -107 27 -214 34 -239 27 -100 104 -226 171 -282 l41
-35 -50 -36 c-117 -86 -172 -179 -172 -290 0 -122 49 -181 152 -181 78 -1 85
8 63 85 -38 136 3 206 212 367 128 99 216 219 261 357 11 33 27 128 36 210 9
83 19 169 22 193 6 41 6 42 -23 42 -58 0 -130 -29 -162 -65 -17 -20 -31 -37
-31 -38 0 -26 -43 -302 -51 -327 -19 -57 -69 -146 -100 -176 l-29 -28 -26 25
c-67 62 -97 145 -129 352 -15 93 -32 168 -41 183 -23 34 -86 65 -149 71 l-52
5 23 -193z"/>
</g>
</svg>
